<svg width="124" height="124" viewBox="0 0 124 124" fill="none" xmlns="http://www.w3.org/2000/svg">
<g clip-path="url(#clip0)">
<path d="M61.8775 108.127C86.2822 108.127 106.067 88.3413 106.067 63.8494C106.067 39.3575 86.1951 19.5723 61.8775 19.5723C37.4728 19.5723 17.6875 39.3575 17.6875 63.8494C17.6875 88.3413 37.4728 108.127 61.8775 108.127Z" fill="#DDE2E6"/>
<path d="M103.193 34.8268C105.166 34.8268 106.766 33.2269 106.766 31.2532C106.766 29.2796 105.166 27.6797 103.193 27.6797C101.219 27.6797 99.6191 29.2796 99.6191 31.2532C99.6191 33.2269 101.219 34.8268 103.193 34.8268Z" fill="#DDE2E6"/>
<path d="M108.421 20.8809C109.769 20.8809 110.861 19.7883 110.861 18.4405C110.861 17.0926 109.769 16 108.421 16C107.073 16 105.98 17.0926 105.98 18.4405C105.98 19.7883 107.073 20.8809 108.421 20.8809Z" fill="#DDE2E6"/>
<path d="M20.042 34.7403C21.3899 34.7403 22.4825 33.6477 22.4825 32.2998C22.4825 30.952 21.3899 29.8594 20.042 29.8594C18.6942 29.8594 17.6016 30.952 17.6016 32.2998C17.6016 33.6477 18.6942 34.7403 20.042 34.7403Z" fill="#DDE2E6"/>
<path d="M9.53231 88.3634C12.0354 88.3634 14.0646 86.3343 14.0646 83.8311C14.0646 81.328 12.0354 79.2988 9.53231 79.2988C7.02918 79.2988 5 81.328 5 83.8311C5 86.3343 7.02918 88.3634 9.53231 88.3634Z" fill="#DDE2E6"/>
<g filter="url(#filter0_d)">
<path d="M53.8619 43.8968L72.5858 82.3427C73.2116 83.6747 72.6587 85.2235 71.3267 85.8493L33.5556 103.687C32.2236 104.313 30.6748 103.76 30.049 102.428L6.57869 52.6693C5.95289 51.3373 6.50583 49.7885 7.83783 49.1627L35.1739 36.2903L53.8619 43.8968Z" fill="#F8F9FD"/>
</g>
<path d="M36.1758 35.2891L41.1822 45.9451C41.9087 47.4108 43.7793 48.0569 45.2451 47.3304L54.8638 42.8956" fill="#E6EBF2"/>
<g filter="url(#filter1_d)">
<path d="M88.0299 46.7278L88.5718 89.4873C88.5699 90.959 87.4093 92.1242 85.9376 92.1222L44.1662 92.1507C42.6945 92.1487 41.5294 90.9881 41.5313 89.5165L41.5204 34.4999C41.5224 33.0283 42.683 31.8631 44.1546 31.8651L74.3699 31.8785L88.0299 46.7278Z" fill="#F8F9FD"/>
</g>
<path d="M74.3691 31.8789L74.3535 43.6523C74.3857 45.288 75.8021 46.6701 77.4378 46.6379L88.0292 46.7282" fill="#E6EBF2"/>
<g filter="url(#filter2_d)">
<path d="M114.315 65.6924L96.8474 104.772C96.2661 106.09 94.6412 106.668 93.3419 106.014L55.4979 88.5627C54.1794 87.9814 53.6021 86.3565 54.1834 85.0381L77.2322 35.1153C77.8135 33.7969 79.4384 33.2196 80.7377 33.8733L108.218 46.5677L114.315 65.6924Z" fill="white"/>
</g>
<path d="M108.146 46.5467L103.221 57.2537C102.51 58.7702 103.266 60.5974 104.783 61.3086L114.316 65.6905" fill="#E6EBF2"/>
</g>
<defs>
<filter id="filter0_d" x="-3.67773" y="32.291" width="86.5215" height="87.6544" filterUnits="userSpaceOnUse" color-interpolation-filters="sRGB">
<feFlood flood-opacity="0" result="BackgroundImageFix"/>
<feColorMatrix in="SourceAlpha" type="matrix" values="0 0 0 0 0 0 0 0 0 0 0 0 0 0 0 0 0 0 127 0"/>
<feOffset dy="6"/>
<feGaussianBlur stdDeviation="5"/>
<feColorMatrix type="matrix" values="0 0 0 0 0.397708 0 0 0 0 0.47749 0 0 0 0 0.575 0 0 0 0.27 0"/>
<feBlend mode="normal" in2="BackgroundImageFix" result="effect1_dropShadow"/>
<feBlend mode="normal" in="SourceGraphic" in2="effect1_dropShadow" result="shape"/>
</filter>
<filter id="filter1_d" x="31.5195" y="27.8652" width="67.0514" height="80.2856" filterUnits="userSpaceOnUse" color-interpolation-filters="sRGB">
<feFlood flood-opacity="0" result="BackgroundImageFix"/>
<feColorMatrix in="SourceAlpha" type="matrix" values="0 0 0 0 0 0 0 0 0 0 0 0 0 0 0 0 0 0 127 0"/>
<feOffset dy="6"/>
<feGaussianBlur stdDeviation="5"/>
<feColorMatrix type="matrix" values="0 0 0 0 0.397708 0 0 0 0 0.47749 0 0 0 0 0.575 0 0 0 0.27 0"/>
<feBlend mode="normal" in2="BackgroundImageFix" result="effect1_dropShadow"/>
<feBlend mode="normal" in="SourceGraphic" in2="effect1_dropShadow" result="shape"/>
</filter>
<filter id="filter2_d" x="43.957" y="29.6035" width="80.3578" height="92.6812" filterUnits="userSpaceOnUse" color-interpolation-filters="sRGB">
<feFlood flood-opacity="0" result="BackgroundImageFix"/>
<feColorMatrix in="SourceAlpha" type="matrix" values="0 0 0 0 0 0 0 0 0 0 0 0 0 0 0 0 0 0 127 0"/>
<feOffset dy="6"/>
<feGaussianBlur stdDeviation="5"/>
<feColorMatrix type="matrix" values="0 0 0 0 0.397708 0 0 0 0 0.47749 0 0 0 0 0.575 0 0 0 0.27 0"/>
<feBlend mode="normal" in2="BackgroundImageFix" result="effect1_dropShadow"/>
<feBlend mode="normal" in="SourceGraphic" in2="effect1_dropShadow" result="shape"/>
</filter>
<clipPath id="clip0">
<rect width="124" height="124" fill="white"/>
</clipPath>
</defs>
</svg>